<svg width="1064" height="331" viewBox="0 0 1064 331" fill="none" xmlns="http://www.w3.org/2000/svg">
<g filter="url(#filter0_d_103_6)">
<path d="M863.925 229.848L998.469 307V281.283L886.619 218.597V186.45L998.469 250.743V226.634L886.619 163.948V128.586L998.469 191.272V167.162L886.619 104.476V65.9005L998.469 128.586V104.476L886.619 41.7906L917.418 24.1099L1032.51 88.4031V286.105L1051.96 274.853V77.1518L917.418 0L863.925 30.5393V229.848Z" fill="url(#paint0_radial_103_6)"/>
</g>
<g filter="url(#filter1_d_103_6)">
<path d="M722.305 299.356V270.184H730.393H738.349C754.702 270.184 762.328 263.434 762.328 249.622C762.328 242.913 758.132 229.2 749.74 208.482L705.199 100.454H751.354L775.884 168.822L786.535 201.971H787.18C790.193 189.145 793.42 178.096 796.863 168.822L820.102 100.454H864.321L806.546 256.133C800.091 273.496 792.775 285.434 784.598 291.945C776.637 298.654 763.984 299.356 747.631 299.356L722.305 299.356Z" fill="black"/>
<path d="M722.305 299.356V270.184H730.393H738.349C754.702 270.184 762.328 263.434 762.328 249.622C762.328 242.913 758.132 229.2 749.74 208.482L705.199 100.454H751.354L775.884 168.822L786.535 201.971H787.18C790.193 189.145 793.42 178.096 796.863 168.822L820.102 100.454H864.321L806.546 256.133C800.091 273.496 792.775 285.434 784.598 291.945C776.637 298.654 763.984 299.356 747.631 299.356L722.305 299.356Z" fill="url(#paint1_linear_103_6)"/>
</g>
<g filter="url(#filter2_d_103_6)">
<path d="M669.678 248.967V20.8711H713.065V248.967H669.678Z" fill="black"/>
<path d="M669.678 248.967V20.8711H713.065V248.967H669.678Z" fill="url(#paint2_linear_103_6)"/>
</g>
<g filter="url(#filter3_d_103_6)">
<path d="M625.049 248.967L579.11 174.318L560.288 193.778V248.967H517.221V20.8711H560.288V147.201L618.349 85.3123H670.349L610.055 147.52L677.686 248.967H625.049Z" fill="black"/>
<path d="M625.049 248.967L579.11 174.318L560.288 193.778V248.967H517.221V20.8711H560.288V147.201L618.349 85.3123H670.349L610.055 147.52L677.686 248.967H625.049Z" fill="url(#paint3_linear_103_6)"/>
</g>
<g filter="url(#filter4_d_103_6)">
<path d="M495.458 229.188C479.508 245.565 458.984 253.753 433.888 253.753C408.792 253.753 388.269 245.565 372.318 229.188C356.367 212.6 348.392 191.97 348.392 167.299C348.392 142.629 356.367 122.105 372.318 105.729C388.269 89.1405 408.792 80.8461 433.888 80.8461C458.984 80.8461 479.508 89.1405 495.458 105.729C511.409 122.105 519.384 142.629 519.384 167.299C519.384 191.97 511.409 212.6 495.458 229.188ZM433.888 220.575C446.862 220.575 456.964 215.79 464.195 206.219C471.639 196.436 475.36 183.463 475.36 167.299C475.36 151.136 471.639 138.163 464.195 128.379C456.964 118.596 446.862 113.705 433.888 113.705C420.702 113.705 410.494 118.596 403.263 128.379C396.032 137.95 392.416 150.923 392.416 167.299C392.416 183.463 396.032 196.436 403.263 206.219C410.494 215.79 420.702 220.575 433.888 220.575Z" fill="black"/>
<path d="M495.458 229.188C479.508 245.565 458.984 253.753 433.888 253.753C408.792 253.753 388.269 245.565 372.318 229.188C356.367 212.6 348.392 191.97 348.392 167.299C348.392 142.629 356.367 122.105 372.318 105.729C388.269 89.1405 408.792 80.8461 433.888 80.8461C458.984 80.8461 479.508 89.1405 495.458 105.729C511.409 122.105 519.384 142.629 519.384 167.299C519.384 191.97 511.409 212.6 495.458 229.188ZM433.888 220.575C446.862 220.575 456.964 215.79 464.195 206.219C471.639 196.436 475.36 183.463 475.36 167.299C475.36 151.136 471.639 138.163 464.195 128.379C456.964 118.596 446.862 113.705 433.888 113.705C420.702 113.705 410.494 118.596 403.263 128.379C396.032 137.95 392.416 150.923 392.416 167.299C392.416 183.463 396.032 196.436 403.263 206.219C410.494 215.79 420.702 220.575 433.888 220.575Z" fill="url(#paint4_linear_103_6)"/>
</g>
<g filter="url(#filter5_d_103_6)">
<path d="M334.605 229.188C318.654 245.565 298.131 253.753 273.035 253.753C247.939 253.753 227.415 245.565 211.465 229.188C195.514 212.6 187.538 191.97 187.538 167.299C187.538 142.629 195.514 122.105 211.465 105.729C227.415 89.1405 247.939 80.8461 273.035 80.8461C298.131 80.8461 318.654 89.1405 334.605 105.729C350.555 122.105 358.531 142.629 358.531 167.299C358.531 191.97 350.555 212.6 334.605 229.188ZM273.035 220.575C286.008 220.575 296.11 215.79 303.341 206.219C310.785 196.436 314.507 183.463 314.507 167.299C314.507 151.136 310.785 138.163 303.341 128.379C296.11 118.596 286.008 113.705 273.035 113.705C259.849 113.705 249.64 118.596 242.409 128.379C235.178 137.95 231.563 150.923 231.563 167.299C231.563 183.463 235.178 196.436 242.409 206.219C249.64 215.79 259.849 220.575 273.035 220.575Z" fill="black"/>
<path d="M334.605 229.188C318.654 245.565 298.131 253.753 273.035 253.753C247.939 253.753 227.415 245.565 211.465 229.188C195.514 212.6 187.538 191.97 187.538 167.299C187.538 142.629 195.514 122.105 211.465 105.729C227.415 89.1405 247.939 80.8461 273.035 80.8461C298.131 80.8461 318.654 89.1405 334.605 105.729C350.555 122.105 358.531 142.629 358.531 167.299C358.531 191.97 350.555 212.6 334.605 229.188ZM273.035 220.575C286.008 220.575 296.11 215.79 303.341 206.219C310.785 196.436 314.507 183.463 314.507 167.299C314.507 151.136 310.785 138.163 303.341 128.379C296.11 118.596 286.008 113.705 273.035 113.705C259.849 113.705 249.64 118.596 242.409 128.379C235.178 137.95 231.563 150.923 231.563 167.299C231.563 183.463 235.178 196.436 242.409 206.219C249.64 215.79 259.849 220.575 273.035 220.575Z" fill="url(#paint5_linear_103_6)"/>
</g>
<g filter="url(#filter6_d_103_6)">
<path d="M12 248.967V20.8711H114.085C138.543 20.8711 156.939 26.4007 169.275 37.4599C181.397 48.3064 187.459 62.5558 187.459 80.208C187.459 102.539 175.549 117.746 151.729 125.827V126.784C164.49 130.613 174.698 137.524 182.354 147.52C190.223 157.516 194.158 169.426 194.158 183.25C194.158 203.454 187.459 219.299 174.06 230.783C160.236 242.906 141.095 248.967 116.637 248.967H12ZM58.2573 146.882V210.685H111.533C122.592 210.685 131.312 207.921 137.692 202.391C144.073 196.649 147.263 189.099 147.263 179.741C147.263 169.32 143.753 161.238 136.735 155.496C129.929 149.753 121.103 146.882 110.257 146.882H58.2573ZM58.2573 112.748H108.343C118.551 112.748 126.739 110.408 132.907 105.729C139.075 100.838 142.158 94.032 142.158 85.3123C142.158 76.8052 139.181 70.2122 133.226 65.5333C127.484 60.8544 119.508 58.515 109.3 58.515H58.2573V112.748Z" fill="black"/>
<path d="M12 248.967V20.8711H114.085C138.543 20.8711 156.939 26.4007 169.275 37.4599C181.397 48.3064 187.459 62.5558 187.459 80.208C187.459 102.539 175.549 117.746 151.729 125.827V126.784C164.49 130.613 174.698 137.524 182.354 147.52C190.223 157.516 194.158 169.426 194.158 183.25C194.158 203.454 187.459 219.299 174.06 230.783C160.236 242.906 141.095 248.967 116.637 248.967H12ZM58.2573 146.882V210.685H111.533C122.592 210.685 131.312 207.921 137.692 202.391C144.073 196.649 147.263 189.099 147.263 179.741C147.263 169.32 143.753 161.238 136.735 155.496C129.929 149.753 121.103 146.882 110.257 146.882H58.2573ZM58.2573 112.748H108.343C118.551 112.748 126.739 110.408 132.907 105.729C139.075 100.838 142.158 94.032 142.158 85.3123C142.158 76.8052 139.181 70.2122 133.226 65.5333C127.484 60.8544 119.508 58.515 109.3 58.515H58.2573V112.748Z" fill="url(#paint6_linear_103_6)"/>
</g>
<defs>
<filter id="filter0_d_103_6" x="851.937" y="0" width="212.014" height="330.976" filterUnits="userSpaceOnUse" color-interpolation-filters="sRGB">
<feFlood flood-opacity="0" result="BackgroundImageFix"/>
<feColorMatrix in="SourceAlpha" type="matrix" values="0 0 0 0 0 0 0 0 0 0 0 0 0 0 0 0 0 0 127 0" result="hardAlpha"/>
<feOffset dy="11.988"/>
<feGaussianBlur stdDeviation="5.99402"/>
<feComposite in2="hardAlpha" operator="out"/>
<feColorMatrix type="matrix" values="0 0 0 0 0 0 0 0 0 0 0 0 0 0 0 0 0 0 0.25 0"/>
<feBlend mode="normal" in2="BackgroundImageFix" result="effect1_dropShadow_103_6"/>
<feBlend mode="normal" in="SourceGraphic" in2="effect1_dropShadow_103_6" result="shape"/>
</filter>
<filter id="filter1_d_103_6" x="693.211" y="100.454" width="183.098" height="222.879" filterUnits="userSpaceOnUse" color-interpolation-filters="sRGB">
<feFlood flood-opacity="0" result="BackgroundImageFix"/>
<feColorMatrix in="SourceAlpha" type="matrix" values="0 0 0 0 0 0 0 0 0 0 0 0 0 0 0 0 0 0 127 0" result="hardAlpha"/>
<feOffset dy="11.988"/>
<feGaussianBlur stdDeviation="5.99402"/>
<feComposite in2="hardAlpha" operator="out"/>
<feColorMatrix type="matrix" values="0 0 0 0 0 0 0 0 0 0 0 0 0 0 0 0 0 0 0.25 0"/>
<feBlend mode="normal" in2="BackgroundImageFix" result="effect1_dropShadow_103_6"/>
<feBlend mode="normal" in="SourceGraphic" in2="effect1_dropShadow_103_6" result="shape"/>
</filter>
<filter id="filter2_d_103_6" x="657.69" y="20.8711" width="67.3622" height="252.072" filterUnits="userSpaceOnUse" color-interpolation-filters="sRGB">
<feFlood flood-opacity="0" result="BackgroundImageFix"/>
<feColorMatrix in="SourceAlpha" type="matrix" values="0 0 0 0 0 0 0 0 0 0 0 0 0 0 0 0 0 0 127 0" result="hardAlpha"/>
<feOffset dy="11.988"/>
<feGaussianBlur stdDeviation="5.99402"/>
<feComposite in2="hardAlpha" operator="out"/>
<feColorMatrix type="matrix" values="0 0 0 0 0 0 0 0 0 0 0 0 0 0 0 0 0 0 0.25 0"/>
<feBlend mode="normal" in2="BackgroundImageFix" result="effect1_dropShadow_103_6"/>
<feBlend mode="normal" in="SourceGraphic" in2="effect1_dropShadow_103_6" result="shape"/>
</filter>
<filter id="filter3_d_103_6" x="505.233" y="20.8711" width="184.441" height="252.072" filterUnits="userSpaceOnUse" color-interpolation-filters="sRGB">
<feFlood flood-opacity="0" result="BackgroundImageFix"/>
<feColorMatrix in="SourceAlpha" type="matrix" values="0 0 0 0 0 0 0 0 0 0 0 0 0 0 0 0 0 0 127 0" result="hardAlpha"/>
<feOffset dy="11.988"/>
<feGaussianBlur stdDeviation="5.99402"/>
<feComposite in2="hardAlpha" operator="out"/>
<feColorMatrix type="matrix" values="0 0 0 0 0 0 0 0 0 0 0 0 0 0 0 0 0 0 0.25 0"/>
<feBlend mode="normal" in2="BackgroundImageFix" result="effect1_dropShadow_103_6"/>
<feBlend mode="normal" in="SourceGraphic" in2="effect1_dropShadow_103_6" result="shape"/>
</filter>
<filter id="filter4_d_103_6" x="336.404" y="80.8461" width="194.969" height="196.883" filterUnits="userSpaceOnUse" color-interpolation-filters="sRGB">
<feFlood flood-opacity="0" result="BackgroundImageFix"/>
<feColorMatrix in="SourceAlpha" type="matrix" values="0 0 0 0 0 0 0 0 0 0 0 0 0 0 0 0 0 0 127 0" result="hardAlpha"/>
<feOffset dy="11.988"/>
<feGaussianBlur stdDeviation="5.99402"/>
<feComposite in2="hardAlpha" operator="out"/>
<feColorMatrix type="matrix" values="0 0 0 0 0 0 0 0 0 0 0 0 0 0 0 0 0 0 0.25 0"/>
<feBlend mode="normal" in2="BackgroundImageFix" result="effect1_dropShadow_103_6"/>
<feBlend mode="normal" in="SourceGraphic" in2="effect1_dropShadow_103_6" result="shape"/>
</filter>
<filter id="filter5_d_103_6" x="175.55" y="80.8461" width="194.969" height="196.883" filterUnits="userSpaceOnUse" color-interpolation-filters="sRGB">
<feFlood flood-opacity="0" result="BackgroundImageFix"/>
<feColorMatrix in="SourceAlpha" type="matrix" values="0 0 0 0 0 0 0 0 0 0 0 0 0 0 0 0 0 0 127 0" result="hardAlpha"/>
<feOffset dy="11.988"/>
<feGaussianBlur stdDeviation="5.99402"/>
<feComposite in2="hardAlpha" operator="out"/>
<feColorMatrix type="matrix" values="0 0 0 0 0 0 0 0 0 0 0 0 0 0 0 0 0 0 0.25 0"/>
<feBlend mode="normal" in2="BackgroundImageFix" result="effect1_dropShadow_103_6"/>
<feBlend mode="normal" in="SourceGraphic" in2="effect1_dropShadow_103_6" result="shape"/>
</filter>
<filter id="filter6_d_103_6" x="0.01196" y="20.8711" width="206.134" height="252.072" filterUnits="userSpaceOnUse" color-interpolation-filters="sRGB">
<feFlood flood-opacity="0" result="BackgroundImageFix"/>
<feColorMatrix in="SourceAlpha" type="matrix" values="0 0 0 0 0 0 0 0 0 0 0 0 0 0 0 0 0 0 127 0" result="hardAlpha"/>
<feOffset dy="11.988"/>
<feGaussianBlur stdDeviation="5.99402"/>
<feComposite in2="hardAlpha" operator="out"/>
<feColorMatrix type="matrix" values="0 0 0 0 0 0 0 0 0 0 0 0 0 0 0 0 0 0 0.25 0"/>
<feBlend mode="normal" in2="BackgroundImageFix" result="effect1_dropShadow_103_6"/>
<feBlend mode="normal" in="SourceGraphic" in2="effect1_dropShadow_103_6" result="shape"/>
</filter>
<radialGradient id="paint0_radial_103_6" cx="0" cy="0" r="1" gradientUnits="userSpaceOnUse" gradientTransform="translate(1184.36 1.93109e-05) rotate(143.978) scale(415.244 415.623)">
<stop stop-color="white"/>
<stop offset="1"/>
</radialGradient>
<linearGradient id="paint1_linear_103_6" x1="643.083" y1="44.9699" x2="643.083" y2="576.868" gradientUnits="userSpaceOnUse">
<stop stop-color="white" stop-opacity="0.49"/>
<stop offset="1" stop-opacity="0"/>
</linearGradient>
<linearGradient id="paint2_linear_103_6" x1="652.742" y1="-42.7562" x2="652.742" y2="567.211" gradientUnits="userSpaceOnUse">
<stop stop-color="white" stop-opacity="0.49"/>
<stop offset="1" stop-opacity="0"/>
</linearGradient>
<linearGradient id="paint3_linear_103_6" x1="454.582" y1="-42.7562" x2="454.582" y2="567.211" gradientUnits="userSpaceOnUse">
<stop stop-color="white" stop-opacity="0.49"/>
<stop offset="1" stop-opacity="0"/>
</linearGradient>
<linearGradient id="paint4_linear_103_6" x1="281.643" y1="32.6139" x2="281.643" y2="494.995" gradientUnits="userSpaceOnUse">
<stop stop-color="white" stop-opacity="0.49"/>
<stop offset="1" stop-opacity="0"/>
</linearGradient>
<linearGradient id="paint5_linear_103_6" x1="120.789" y1="32.6139" x2="120.789" y2="494.995" gradientUnits="userSpaceOnUse">
<stop stop-color="white" stop-opacity="0.49"/>
<stop offset="1" stop-opacity="0"/>
</linearGradient>
<linearGradient id="paint6_linear_103_6" x1="-59.1076" y1="-42.7562" x2="-59.1076" y2="567.211" gradientUnits="userSpaceOnUse">
<stop stop-color="white" stop-opacity="0.49"/>
<stop offset="1" stop-opacity="0"/>
</linearGradient>
</defs>
</svg>
